<svg xmlns="http://www.w3.org/2000/svg" viewBox="0 0 100 100">
  <rect width="100" height="100" rx="18" fill="#1a1a1e"/>
  <!-- Gear silhouette -->
  <path d="M50 8 L55 22 L68 12 L65 27 L80 24 L72 37 L87 40 L74 48 L87 58 L72 61 L80 76 L65 73 L68 88 L55 78 L50 92 L45 78 L32 88 L35 73 L20 76 L28 61 L13 58 L26 48 L13 40 L28 37 L20 24 L35 27 L32 12 L45 22 Z" fill="#d4a24e"/>
  <circle cx="50" cy="50" r="22" fill="#1a1a1e"/>
  <text x="50" y="57" text-anchor="middle" font-size="22" font-weight="bold" fill="#d4a24e" font-family="system-ui, -apple-system, sans-serif">PM</text>
</svg>
